# xmcd
#
# Track frame offsets: 
#        150
#        18076
#        35411
#        51697
#        68333
#        89692
#        106543
#        124239
#        147033
#        161968
#        181877
#        198164
#        213175
#        231532
#        246367
#        263875
#        286448
#        303483
#        322379
#        336653
#
# Disc length: 4700 seconds
#
# Revision: 0
# Processed by: cddbd v1.5.2PL0 Copyright (c) Steve Scherf et al.
# Submitted via: ExactAudioCopy v0.99pb3
#
DISCID=34125a14
DTITLE=Various Artist - ERG Nu Urban Traxx #119
DYEAR=2008
DGENRE=Blues
TTITLE0=J Holiday - Be With Me
TTITLE1=Mario - Music For Love
TTITLE2=Lloyd Ft Ludacris - How We Do It (Around The Way)
TTITLE3=Casely - Emotional
TTITLE4=Day26 - Got Me Going
TTITLE5=Ledisi - In The Morning
TTITLE6=Dallas - Thugs Cry
TTITLE7=Three 6 Mafia Ft UNK - I'd Rather
TTITLE8=Teyana Taylor - Google Me
TTITLE9=Rihanna - Don't Stop The Music
TTITLE10=Tiffany Evans Ft Bow Wow - I'm Grown
TTITLE11=Sheek Louch - Good Love
TTITLE12=Marcus Miller Ft Corrine Bailey Rae - Free
TTITLE13=One Chance - U Can't
TTITLE14=Pitbul Ft Trina and Young Boss - Go Girl
TTITLE15=Michael McDonald - Love T.K.O
TTITLE16=Randy Jackson Ft Barbi Esco - My R&B
TTITLE17=Felli Fel Ft Ne Yo Kanye west Jermaine Dupri Fabolous - Finer
TTITLE17=Things
TTITLE18=Baby D - I'm 'Bout Money
TTITLE19=Chrisette Michelle - Be OK
EXTD=
EXTT0=
EXTT1=
EXTT2=
EXTT3=
EXTT4=
EXTT5=
EXTT6=
EXTT7=
EXTT8=
EXTT9=
EXTT10=
EXTT11=
EXTT12=
EXTT13=
EXTT14=
EXTT15=
EXTT16=
EXTT17=
EXTT18=
EXTT19=
PLAYORDER=
